<?xml version="1.0" standalone="no"?><!DOCTYPE svg PUBLIC "-//W3C//DTD SVG 1.1//EN" "http://www.w3.org/Graphics/SVG/1.1/DTD/svg11.dtd"><svg t="1764924177549" class="icon" viewBox="0 0 1024 1024" version="1.1" xmlns="http://www.w3.org/2000/svg" p-id="8048" width="32" height="32" xmlns:xlink="http://www.w3.org/1999/xlink"><path d="M226.41 104.54c-46.031 0-88.335 20.878-120.411 61.023l-0.056 0.074-0.057 0.074c-32.325 40.85-51.126 98.3-58.126 166.412l-4.953 48.195h74.24l7.407-28.954c7.972-31.17 18.945-51.078 32.818-64.47l0.028-0.024 0.028-0.025c15.027-14.57 30.108-21.087 49.007-21.087 19.65 0 33.396 7.716 48.183 28.141 14.186 19.596 21.02 42.128 21.02 76.288 0 44.047-14.698 98.055-48.642 161.279-33.813 62.98-95.407 149.256-183.668 255.109l-10.534 12.642v79.698h358.04l26.488-95.677v95.677h261.916c105.548 0 190.528-38.413 246.664-119.485l0.038-0.05 0.028-0.048c48.8-70.877 73.52-161.535 73.52-264.12 0-76.553-13.657-146.682-41.357-207.16-27.217-59.969-65.062-105.21-111.422-131.672-46.87-26.9-108.723-37.904-187.93-37.904H417.223V221.92h51.647c11.004 0 15.305 2.37 18.1 5.564 0.39 1.278 1.341 4.326 1.966 8.987 1.258 9.392 2.162 24.535 2.162 44.06v436.33c0 35.477-6.96 58.142-2.902 50.14l-0.075 0.16-0.075 0.148c-2.632 5.287-4.347 8.161-19.176 8.161h-49.494l30.89-111.569h-78.848l-9.335 21.236c-4.645 10.57-9.296 17.127-13.689 21.321-4.931 4.375-10.277 7.296-17.144 8.938l-0.065 0.012-0.066 0.012c-6.075 1.486-24.813 3.275-51.292 3.275h-57.284c17.923-25.125 38.749-54.697 64.822-92.144 43.513-62.379 75.843-122.529 96.44-181.75 13.84-39.083 21.17-79.67 21.17-120.434 0-58.71-18.719-113.379-52.012-155.21-33.59-42.518-77.984-64.617-126.553-64.617z m447.42 136.806c53.342 0 92.543 21.646 125.391 67.375 32.236 44.876 49.138 105.868 49.138 191.464 0 84.877-16.869 145.779-49.213 191.082-33.062 46.31-71.259 67.769-122.283 67.769-12.846 0-29.21-2.154-48.37-6.463V247.575c16.91-4.11 32.162-6.229 45.337-6.229z" p-id="8049" fill="#ffffff"></path></svg>