<?xml version="1.0" standalone="no"?><!DOCTYPE svg PUBLIC "-//W3C//DTD SVG 1.1//EN" "http://www.w3.org/Graphics/SVG/1.1/DTD/svg11.dtd"><svg t="1764924190209" class="icon" viewBox="0 0 1024 1024" version="1.1" xmlns="http://www.w3.org/2000/svg" p-id="9239" width="32" height="32" xmlns:xlink="http://www.w3.org/1999/xlink"><path d="M213.68 100.155c-40.328 0-77.73 14.85-106.856 44.552h-0.01c-27.648 28.148-49.193 66.765-65.667 113.856L28.904 293.55l67.715 39.736 15.735-30.4c22.926-44.285 44.058-59.03 72.272-59.03 17.442 0 27.914 5.347 38.59 18.268l0.18 0.23 0.19 0.207c10.316 12.1 15.122 25.318 15.122 49.083 0 18.602-3.268 34.07-9.907 48.799-5.947 13.196-15.943 25.75-32.635 37.617l-0.08 0.055-0.082 0.054c-17.118 12.325-33.072 19.05-48.425 21.402l-28.89 4.434v89.277h45.429c15.47 0 30.437 3.835 45.934 12.088l0.163 0.087 0.171 0.087c16.86 8.706 28.806 17.988 36.109 26.196 3.622 4.112 9.15 13.084 14.653 27.43l0.009 0.032 0.018 0.033c7.152 18.55 10.448 36.474 10.448 55.252 0 24.357-5.8 41.788-20.202 59.904l-0.072 0.099-0.081 0.098c-14.209 18.112-26.773 24.558-44.572 24.558-7.96 0-14.89-1.236-21.168-3.494l-0.532-0.186-0.541-0.175c0.716 0.226-10.568-4.96-25.273-14.151-15.636-10.106-23.148-15.688-35.54-20.125-9.479-3.5-19.323-5.449-29.225-5.449-15.852 0-32.639 7.776-44.4 20.824l-0.253 0.284-0.253 0.294c-11.18 12.944-19.11 33.168-19.11 52.796 0 28.938 15.67 52.355 33.177 67.056l0.135 0.11 0.126 0.097c24.506 20.167 52.878 22.866 90.976 22.866 78.18 0 144.256-30.557 188.728-92.488l0.009-0.01c33.788-47.098 51.447-105.675 51.447-169.132 0-45.353-10.234-87.916-30.785-123.28-11.836-20.366-26.93-37.672-44.5-52.13 31.2-41.877 49.345-86.305 49.345-133.85 0-37.829-12.207-74.306-33.15-104.695-28.877-42.482-73.048-64.151-122.23-64.151z m194.619 13.126V210.582h52.792c11.248 0 15.622 2.221 18.478 5.23 0.399 1.202 1.382 4.077 2.021 8.463 1.286 8.835 2.21 23.074 2.21 41.44v410.483c0 33.38-7.121 54.711-2.968 47.171l-0.072 0.142-0.081 0.142c-2.69 4.973-4.433 7.677-19.589 7.677H408.3v97.314h267.676c107.87 0 194.724-36.15 252.094-112.416l0.036-0.044 0.027-0.032c49.875-66.676 75.141-151.967 75.141-248.472 0-72.005-13.961-137.97-42.262-194.857-27.814-56.422-66.494-98.993-113.876-123.892-47.904-25.31-111.121-35.651-192.075-35.651z m262.253 115.582c54.515 0 94.569 20.357 128.14 63.376 32.945 42.215 50.22 99.603 50.22 180.127 0 79.846-17.237 137.127-50.292 179.744-33.788 43.564-72.825 63.759-124.973 63.759-13.13 0-29.849-2.03-49.426-6.082V234.715c17.28-3.865 32.866-5.852 46.331-5.852z" p-id="9240" fill="#ffffff"></path></svg>