<?xml version="1.0" standalone="no"?><!DOCTYPE svg PUBLIC "-//W3C//DTD SVG 1.1//EN" "http://www.w3.org/Graphics/SVG/1.1/DTD/svg11.dtd"><svg t="1764923275431" class="icon" viewBox="0 0 1024 1024" version="1.1" xmlns="http://www.w3.org/2000/svg" p-id="4884" width="32" height="32" xmlns:xlink="http://www.w3.org/1999/xlink"><path d="M292.305455 552.029091a23.272727 23.272727 0 0 1-23.272728-23.272727v-148.712728a23.272727 23.272727 0 0 1 23.272728-23.272727h170.58909a23.272727 23.272727 0 1 1 0 46.545455h-147.316363v125.44a23.272727 23.272727 0 0 1-23.272727 23.272727zM731.927273 552.029091a23.272727 23.272727 0 0 1-23.272728-23.272727v-125.44h-147.316363a23.272727 23.272727 0 0 1 0-46.545455h170.589091a23.272727 23.272727 0 0 1 23.272727 23.272727v148.712728a23.272727 23.272727 0 0 1-23.272727 23.272727zM731.927273 842.938182h-170.589091a23.272727 23.272727 0 0 1-21.643637-14.661818 23.272727 23.272727 0 0 1 5.585455-25.367273 106.356364 106.356364 0 0 0 31.418182-71.214546 64.698182 64.698182 0 0 0-129.163637 0 107.52 107.52 0 0 0 31.418182 71.214546 23.272727 23.272727 0 0 1 5.585455 25.367273 23.272727 23.272727 0 0 1-21.643637 14.661818h-170.58909a23.272727 23.272727 0 0 1-23.272728-23.272727V628.363636a23.272727 23.272727 0 0 1 46.545455 0v169.192728h101.934545a145.221818 145.221818 0 0 1-16.523636-64.698182 111.243636 111.243636 0 0 1 222.254545 0 144.756364 144.756364 0 0 1-16.290909 64.698182h101.701818V628.363636a23.272727 23.272727 0 0 1 46.545455 0v192.465455a23.272727 23.272727 0 0 1-23.272727 22.109091z" p-id="4885" fill="#ffffff"></path><path d="M561.338182 403.316364a23.272727 23.272727 0 0 1-16.058182-40.029091 106.356364 106.356364 0 0 0 31.418182-69.818182 64.698182 64.698182 0 1 0-129.163637 0 107.287273 107.287273 0 0 0 31.418182 69.818182 23.272727 23.272727 0 0 1 0 32.814545 23.272727 23.272727 0 0 1-33.047272 0 151.738182 151.738182 0 0 1-46.545455-104.727273 111.243636 111.243636 0 1 1 222.254545 0 151.738182 151.738182 0 0 1-46.545454 104.727273 23.272727 23.272727 0 0 1-13.730909 7.214546zM204.334545 689.105455a111.243636 111.243636 0 0 1 0-222.254546 152.436364 152.436364 0 0 1 104.96 46.545455 23.272727 23.272727 0 0 1 0 33.047272 23.272727 23.272727 0 0 1-32.814545 0 106.356364 106.356364 0 0 0-71.214545-31.418181 64.698182 64.698182 0 0 0 0 129.163636 107.52 107.52 0 0 0 71.214545-31.418182 23.272727 23.272727 0 0 1 32.814545 0 23.272727 23.272727 0 0 1 0 33.047273 152.436364 152.436364 0 0 1-104.96 43.287273zM819.898182 689.105455a151.738182 151.738182 0 0 1-104.727273-46.545455 23.272727 23.272727 0 0 1 0-33.047273 23.272727 23.272727 0 0 1 32.814546 0 107.52 107.52 0 0 0 71.214545 31.418182 64.698182 64.698182 0 1 0 0-129.163636 105.425455 105.425455 0 0 0-69.818182 31.418182A23.272727 23.272727 0 1 1 715.170909 512a151.505455 151.505455 0 0 1 104.727273-46.545455 111.243636 111.243636 0 1 1 0 222.254546z" p-id="4886" fill="#ffffff"></path></svg>